<svg xmlns="http://www.w3.org/2000/svg" xmlns:xlink="http://www.w3.org/1999/xlink" id="Capa_1" x="0px" y="0px" viewBox="0 0 1447.1 142" style="enable-background:new 0 0 1447.1 142;" xml:space="preserve"><style type="text/css">	.st0{fill:#FFFFFF;}	.st1{fill:#00A7E1;}	.st2{fill:#66C1EA;}	.st3{fill:#AEDBF3;}</style><g>	<g>		<path class="st0" d="M5.6,32.2L5.6,32.2c3.1,0,5.6,2.5,5.6,5.6v52.1c0,3.1,2.5,5.6,5.6,5.6H69c3.1,0,5.6,2.5,5.6,5.6   c0,3.1-2.5,5.6-5.6,5.6H5.6C2.5,106.5,0,104,0,101V37.7C0,34.6,2.5,32.2,5.6,32.2"></path>		<path class="st0" d="M99.1,32.2L99.1,32.2c2.9,0,5.3,2.4,5.3,5.3v63.8c0,2.9-2.4,5.3-5.3,5.3c-2.9,0-5.3-2.4-5.3-5.3V37.5   C93.8,34.5,96.2,32.2,99.1,32.2"></path>		<path class="st0" d="M99.1,20.7L99.1,20.7c-2.9,0-5.3-2.4-5.3-5.3V5.3c0-2.9,2.4-5.3,5.3-5.3c2.9,0,5.3,2.4,5.3,5.3v10.1   C104.4,18.3,102,20.7,99.1,20.7"></path>		<path class="st0" d="M188.3,37.6v5.7c-7.2-7.4-17.5-11.7-28.8-11.1c-18.4,1.1-33.5,16-34.7,34.4c-1.5,21.7,15.7,39.7,37,39.7   c10.4,0,19.8-4.3,26.5-11.1v11.7v0c-0.8,13.7-12.2,24.5-26.1,24.5c-12.5,0-22.9-8.7-25.5-20.4c-0.5-2.4-2.7-4.1-5.2-4.2   c-3.6-0.1-6.3,3.3-5.5,6.8c3.9,16.3,18.6,28.5,36.1,28.5c19.8,0,36.1-15.6,37.1-35.1V37.6c0-3-2.4-5.5-5.5-5.5   C190.8,32.2,188.3,34.6,188.3,37.6 M161.8,96c-14.8,0-26.8-12-26.8-26.8s12-26.8,26.8-26.8c14.8,0,26.8,12,26.8,26.8   S176.6,96,161.8,96"></path>		<path class="st0" d="M229.2,42.8c6.6-6.4,15.6-10.4,25.5-10.6c21-0.3,38.1,17.3,38.1,38.3v30.9c0,2.9-2.4,5.3-5.3,5.3   c-2.9,0-5.3-2.4-5.3-5.3V69.9c0-14.9-12.2-27.4-27-27.1c-14.4,0.3-26,12-26,26.5v32c0,2.9-2.4,5.3-5.3,5.3s-5.3-2.4-5.3-5.3V18   c0-2.9,2.4-5.3,5.3-5.3s5.3,2.4,5.3,5.3V42.8z"></path>		<path class="st0" d="M330.7,32.1h9.3c2.9,0,5.3,2.4,5.3,5.3v0.2c0,2.9-2.4,5.3-5.3,5.3h-9.2c-0.5,0-0.8,0.4-0.8,0.8v57.4   c0,2.9-2.4,5.3-5.3,5.3c-2.9,0-5.3-2.4-5.3-5.3V43.8c0-0.5-0.4-0.8-0.8-0.8h-7.7c-2.9,0-5.3-2.4-5.3-5.3v-0.2   c0-2.9,2.4-5.3,5.3-5.3h7.8c0.4,0,0.7-0.3,0.7-0.7V18c0-2.9,2.4-5.3,5.3-5.3c2.9,0,5.3,2.4,5.3,5.3v13.4   C329.9,31.8,330.3,32.1,330.7,32.1"></path>		<path class="st1" d="M431.4,37.5c0-6.4-5.6-11.3-11.9-10.3c-26.9,4-37.1,21.8-37.5,37.3c-0.4,16.9-5.1,24.1-21.2,25.9   c-5.5,0.6-9.7,5.2-9.7,10.7v0.2c0,6.5,5.7,11.4,12.1,10.6c25.7-3.2,38.8-19.3,38.8-39.6c0-15.7,7.5-22.5,20.4-24.4   C427.6,47.1,431.4,42.7,431.4,37.5"></path>		<path class="st0" d="M484.1,32.2c-20.5,0-37.2,16.6-37.2,37.2s16.6,37.2,37.2,37.2c20.5,0,37.2-16.7,37.2-37.2   S504.7,32.2,484.1,32.2 M484.1,95.8c-14.6,0-26.4-11.8-26.4-26.4c0-14.6,11.8-26.4,26.4-26.4c14.6,0,26.4,11.8,26.4,26.4   C510.5,84,498.7,95.8,484.1,95.8"></path>		<path class="st0" d="M1002.2,32.3c-20.5,0-37.2,16.6-37.2,37.2s16.7,37.2,37.2,37.2c20.5,0,37.2-16.7,37.2-37.2   S1022.7,32.3,1002.2,32.3 M1002.2,95.9c-14.6,0-26.4-11.8-26.4-26.4c0-14.6,11.8-26.4,26.4-26.4c14.6,0,26.4,11.8,26.4,26.4   C1028.6,84.1,1016.8,95.9,1002.2,95.9"></path>		<path class="st0" d="M957.8,37.7c0-3.1-2.6-5.6-5.8-5.5c-21.5,1-30.9,10.7-36,23.2c-2.2,5.4-2.2,14-2.2,14l0,32.1   c0,3,2.4,5.4,5.4,5.4c3,0,5.4-2.4,5.4-5.4V69.5c0-1.6,0.3-9,3.5-14c4.3-6.8,8.6-11.5,24.6-12.3C955.5,43,957.8,40.6,957.8,37.7"></path>		<path class="st0" d="M883.8,77.9c-1.5,10.6-13.6,17.9-24.7,17.9c-14.8,0-26.8-11.8-26.8-26.4c0-14.6,12-26.4,26.8-26.4   c8.7,0,16.4,4.1,21.3,10.4c1,1.3,2.6,2.2,4.3,2.2h0.1c4.5,0,7-5.1,4.2-8.7c-6.9-8.9-17.8-14.6-30-14.6   c-20.8,0-37.7,16.7-37.7,37.2s16.9,37.2,37.7,37.2c9.5,0,18.1-3.4,24.7-9.1v4c0,2.8,2.3,5.1,5.1,5.1c2.9,0,5.2-2.3,5.2-5.1V69.7   c0-1.7-1.4-3.1-3.1-3.1H870c-3.1,0-5.6,2.5-5.6,5.6c0,3.1,2.5,5.6,5.5,5.6L883.8,77.9z"></path>		<path class="st0" d="M788.1,18.1v25c-6.7-6.8-15.9-10.8-26.1-10.9c-19.3-0.1-35.4,14.3-37.2,33.6c-2.1,22.2,15.3,40.8,37,40.8   c10.3,0,19.6-4.2,26.3-10.9v0h0l0,0v5.6c0,2.9,2.4,5.3,5.3,5.3c2.9,0,5.3-2.4,5.3-5.3V18.1c0-2.9-2.4-5.3-5.3-5.3   C790.5,12.8,788.1,15.2,788.1,18.1 M761.8,95.8c-14.6,0-26.4-11.8-26.4-26.4c0-14.6,11.8-26.4,26.4-26.4   c14.6,0,26.4,11.8,26.4,26.4C788.3,84,776.4,95.8,761.8,95.8"></path>		<path class="st0" d="M601.6,95.5c-6.7,6.8-16.1,11-26.4,11c-20.5,0-37.2-16.6-37.2-37.2v0.1V37.5c0-2.9,2.4-5.3,5.3-5.3   c2.9,0,5.3,2.4,5.3,5.3v31.2c0,14.9,12.2,27.4,27,27.2c14.4-0.2,26-12,26-26.4V37.5c0-2.9,2.4-5.3,5.3-5.3s5.3,2.4,5.3,5.3v63.8   c0,2.9-2.4,5.3-5.3,5.3s-5.3-2.4-5.3-5.3V95.5z"></path>		<path class="st0" d="M645.4,43.2c6.7-6.8,16.1-11,26.4-11c20.5,0,37.2,16.6,37.2,37.2v-0.1v32.1c0,2.9-2.4,5.3-5.3,5.3   c-2.9,0-5.3-2.4-5.3-5.3V70.1c0-14.8-12.2-27.4-27-27.2c-14.4,0.2-26,12-26,26.4v31.9c0,2.9-2.4,5.3-5.3,5.3   c-2.9,0-5.3-2.4-5.3-5.3V37.5c0-2.9,2.4-5.3,5.3-5.3c2.9,0,5.3,2.4,5.3,5.3V43.2z"></path>		<path class="st0" d="M1152.9,95.4c7.2,7.4,17.5,11.8,28.8,11.1c19-1.1,34.2-16.7,34.9-35.7c0.8-21.3-16.3-38.8-37.5-38.6   c-20.3,0.2-36.9,17.6-36.9,37.9v65.7c0,2.9,2.4,5.3,5.3,5.3c2.9,0,5.3-2.4,5.3-5.3V95.4z M1179.4,95.8   c-14.6,0-26.4-11.8-26.4-26.4c0-14.6,11.8-26.4,26.4-26.4c14.6,0,26.4,11.8,26.4,26.4C1205.9,84,1194,95.8,1179.4,95.8"></path>		<path class="st0" d="M1053,69.7c0,20.3,16.3,36.8,36.5,37.2c20.8,0.4,37.9-17.1,37.9-37.9V37.8c0-2.9-2.4-5.3-5.3-5.3   s-5.3,2.4-5.3,5.3v31.1c0,14.8-12.1,27.3-26.9,27.2c-14.5-0.1-26.3-11.9-26.3-26.4V37.8c0-2.9-2.4-5.3-5.3-5.3   c-2.9,0-5.3,2.4-5.3,5.3V69.7z"></path>		<path class="st1" d="M1303.8,69.5c0,13.4-10.9,24.3-24.3,24.3c-13.4,0-24.3-10.9-24.3-24.3c0-13.4,10.9-24.3,24.3-24.3   C1293,45.3,1303.8,56.1,1303.8,69.5"></path>		<path class="st2" d="M1375.4,69.4c0,13.4-10.9,24.3-24.3,24.3c-13.4,0-24.3-10.9-24.3-24.3c0-13.4,10.9-24.3,24.3-24.3   C1364.6,45.1,1375.4,56,1375.4,69.4"></path>		<path class="st3" d="M1447.1,69.4c0,13.4-10.9,24.3-24.3,24.3c-13.4,0-24.3-10.9-24.3-24.3c0-13.4,10.9-24.3,24.3-24.3   C1436.2,45.1,1447.1,56,1447.1,69.4"></path>	</g></g></svg>